<svg version="1.2" xmlns="http://www.w3.org/2000/svg" viewBox="0 0 1357 1555" width="1357" height="1555">
	<title>Jollibee_2011_logo-svg</title>
	<style>
		.s0 { fill: #231f20 } 
		.s1 { fill: #ffffff } 
		.s2 { fill: #e5173f } 
		.s3 { fill: #221e1f } 
	</style>
	<g id="g4197">
		<g id="#231f20ff">
			<path id="path5" fill-rule="evenodd" class="s0" d="m491.9 48.8c51.9-30.9 111.9-52.3 173-48.3 46.4 2.8 91.5 25.2 120.3 61.9 33 40.7 49 96 37 147.6-13.8 65.2-64.5 115.6-120.1 148.6 8.4 31 17 62.1 27 92.8 12.8 0.1 25.5 0.3 38.3 0.2-1-57.7 18.6-116.6 58.3-159.1 11.3-11.5 24.3-22 39.6-27.6 15.9-5.9 37.7-0.1 44 16.9 6.5 24.2-6.9 47.5-19.3 67.2-22.9 34.4-56.8 64.7-61.1 108.2 103.5 12.9 203.8 58.7 276.6 134.2 75.4 75.7 122.6 179.7 124.8 286.9 38.6 2 77.4 20.5 97.8 54.3 26.1 43.4 32.6 96.3 27.1 146-8.2 63.5-37.3 122.3-73.8 174.2-44 62.1-98.5 116.2-157.5 164-10.4 9-23.9 15.2-30.3 28.1-18.2 31.7-44.4 59-76.6 76.7-54.2 29.6-118.9 40.2-179.7 28.7-13.7-2-26.9-6.8-40.4-9.4-96.5-9.1-193.3-16.4-288.8-33.1-70.3-13.1-140.4-33.2-202.3-69.8-52-30.5-97.5-76.1-117.3-134-13.5-39.3-18.3-83.6-4.7-123.4 10.9-31.6 33.9-57.4 60.4-77.1-22.9-54.7-33.3-114.1-34.1-173.2 2.2-93.2 32.9-185.8 86.6-262.1-9.6-9.8-18.7-20.1-27.4-30.6-39.7 21.6-86.9 28.9-131.1 19.5-47.9-9.2-95.1-35.6-119-79.4-23.4-43.7-25.8-99.1-3.4-143.7 19.8-39.8 55.1-69.2 92.8-91.4 61.6-36 131.3-55.3 201-67.7 29.6-94.8 98-175 182.3-226.1zm6.5 22c-95.2 57.7-158.3 156.6-191.7 261-3.6 9.4-5.8 25-19.1 24.6-0.4-20.2 8.4-39 12.9-58.4-62.7 13.2-125.6 30.8-181.5 63.1-33.9 19.7-65.7 46.1-83.3 81.8-23.1 46.8-16.1 107.1 18.7 146.3 23.7 26.5 57.6 42 92.2 48 35.4 5.4 73.9 4.2 105.2-15.2-29-25.5-57.7-51.3-88.4-74.8-4.1-2.6-7.1-6.4-7.3-11.4 59.1 18.2 104.8 62.9 147.2 105.9 2.7 2.1 6.9 9.4 10.5 4.7 47.4-58.7 110.6-103 178.4-135.1-19.7-37.3-34.2-78.5-32.5-121.3 0.9-26.6 4.1-54.6 17.8-78 10-16.6 31.2-27.1 50-19.5 11.6 4.5 18 16.3 21.1 27.7 13.3 53.9-9.8 110.2 7.6 163.6 48.1-14.7 97.2-28.4 147.9-30.2-14.9-55.7-31.5-111.3-37.2-168.9-1.2-17.3-2-35.1 1.6-52.2 1.5-0.6 4.4-1.9 5.8-2.5 5.4 35.4 13.7 70.2 21.5 105.1 51.6-29 95.1-79 106-138.5 13.6-76.1-41.4-157.9-118-171.7-65-10.1-130.2 13.1-185.4 45.9zm367.7 211.9c-16.9 5.7-30.1 18.9-40.7 32.9-20.3 29.3-37.1 62-42.1 97.6-6.3 34.1-2.5 68.8-4.1 103.1-14.1-9.6-8.5-30.4-11.5-45.1-69.4-3.2-138.3 10.2-203.9 32.1 4.9 19 20.6 33.4 23 53-4.8-2.1-9.2-5-12.5-9.2-20.6-23.3-36.1-51.9-40.7-83-5.5-29.8 1.7-59.8 1.2-89.8-0.5-19.7 2-42.3-10.6-59-10.1-7.1-24.9-1.8-31.4 7.9-12.2 18.4-15.3 41.1-15.4 62.8-1.1 54.9 18.7 108.7 49.9 153.4 6.6 12.6 19.5 22.2 21.4 36.9-21.6-8.9-30.8-33.3-47.3-47.3-27.4 12.8-53.7 28.2-78.5 45.6-83.2 57.7-145.2 144.4-173.6 241.6-28.7 90.4-22.1 190 12.1 278 53.7-27.3 118.9-26.1 173.4-1.6q2.1 4 4 8.1c-29-4.1-57.9-9.5-87.4-9.1-39.4-0.9-79.3 12.5-109.1 38.5-23.8 20.8-40.2 50.2-43.9 81.7-5.5 58.1 16.8 117.3 57.4 159 50.7 52.8 120.2 83.4 190.4 100.6 98.9 24.1 200.4 34.9 301.7 43.4-9.7-7.2-19.9-14.2-26.7-24.2l1.4-5.7c19.2 4.5 36.5 15 55.1 21.3 61.1 26.9 132.7 34.8 195.9 10.4 55.7-20 101.3-65.2 121-121.1 4.4-7.4 3.8-20.1 13.4-22.8 0.3 9.2 0.4 18.4 0.5 27.6 53.2-41.2 102.3-88.1 142.8-142 36.5-48.6 66.6-103.5 78.5-163.5 9.2-45.5 5.7-93.7-11.7-136.8-10.8-26.1-32.1-47.7-58.7-57.5-33.4-13-71.3-6.9-102.7 8.7l-0.1-6.1c15.4-12.8 34.5-19.3 53.7-23.4-2.5-123.8-65.7-244.3-165.8-317.2-64.4-46.6-140.5-78.6-220-85.8-1.3 15-1.3 30.2-2.9 45.2-7.5-4.8-8.4-14-8.9-22-1.2-26.3-0.3-53.6 10.5-78 15.8-37.6 45.8-66.6 64.4-102.7 4.9-9.9 9.7-23.2 1.9-33-5.5-6.9-15.8-5.2-23.4-3.5z"/>
			<path id="path7" fill-rule="evenodd" class="s0" d="m927.4 686.7c31.6-9.9 66.2-0.5 93.1 17.3 31.3 21 52.6 53.5 68.4 87.1 18.1 37.6 26.9 79.4 27.9 121 6.5 0 15 1 10.6 9.8-47.5 26.5-97.8 47.6-145.8 73.3-16.7 8.1-32.3 18.5-49.8 25-30-37.1-49.3-81.7-62.3-127.2-11.3-42.4-19.5-87.7-9.1-131.1 7.9-34.1 32.7-65.2 67-75.2zm-43.2 58.7c-16.2 37.3-14.1 80.5-3.8 119.1 3.8-24.1 13.7-49.4 35.8-62.2 28.3-18.2 67.9-15.4 92.8 7.5-8.4 20.9-18.3 41.1-26.5 62.1 17.7-10.7 34.9-22.2 51.8-33.9 18.3 29.4 29.5 63.8 29.3 98.7 12.8-5.5 25.4-11.1 37.9-17.3-2.8-64.5-22.9-130.3-66.6-179.2-21.1-23.7-51.5-42.7-84.5-39.7-28.3 0.7-55.2 18.6-66.2 44.9z"/>
			<path id="path9" fill-rule="evenodd" class="s0" d="m575.4 762.2c47.7-2.1 90.9 27.8 119.1 64.1 36.8 47.4 48.7 108.6 53 167.1 1.5 26.7 1 53.6-2.3 80.3-29.5-0.2-59 0-88.4 0.6-56.7 2.2-112.9 9.6-168.9 18.5-1.3-2.6-3.9-7.8-5.2-10.4q7-3.4 14-6.7c-26.3-49.6-44.5-104.7-44.5-161.3 0-42.5 13.4-86.9 44.9-116.8 21.3-19.5 48.5-35.6 78.3-35.4zm-20.9 23c-30.5 8.3-54 32.8-67.9 60.3-18 36.2-21.3 79.3-10.2 118 3.2-38.3 29.8-75.8 67.8-85.8 27.9-7.9 57.5 2.9 79.8 20-10.1 23.9-21.4 47.5-29.4 72.2 19.4-12.1 38.1-25.3 58.4-36.1 21.7 37.4 24.4 82.3 18 124.2 19.3-0.1 38.7-0.3 58-0.7 3-53.4-1.1-107.8-17.7-158.8-14-43-42-83.2-82.5-104.7-22.5-12.3-49.6-15-74.3-8.6z"/>
			<path id="path11" fill-rule="evenodd" class="s0" d="m1134.4 1062c10.7-1.7 20.4-9.2 31.6-7.7-14.2 18.7-40.5 22.2-53.3 42.1-37.4 48.6-67.4 102.7-90 159.5-15.4 35.3-36 72-71.6 90.2-36.4 16.2-79.7 13.7-115.6-2.8-33.8-14.7-63.2-37.6-96.7-52.7-42.9-19.8-86.9-37.3-132.1-51.2-10.3-2.6-21.3-7.6-32-3.3-20.4 6.3-42.2 7.9-63.2 3.8 0.8-1.3 2.4-3.8 3.2-5.1 25.7-3.6 51.9-12.6 69.7-32.5 6-5.4 9.7-15.4 19.1-15.1 1.7 10.6-3 20.4-7.8 29.6 27.1 10.8 56.3 14.6 85.1 18.7 80.8 9.7 164.6 9.5 242.9-15.3 59.7-19.2 117.3-51.7 156.7-101.5 8.3-11.1 16.9-22.3 21.6-35.5-11.5-1.9-25.6-5.8-29-18.7 20.5 0.5 41.3 3.4 61.4-2.5zm-220.1 209.6c5.2 7.6 10.8 15 15.2 23.2-40.2-28.2-96.6-22.2-136.3 3.7 32.5 24.7 73 42.8 114.6 39.7 40.5-3.6 74.7-34.4 89.3-71.3-13.4-5.5-27.4-11.4-42.2-10.2-14.8 0.4-28.3 7.2-40.6 14.9z"/>
			<path id="path13" class="s0" d="m921.4 1079.3c9.8 7.2 17.3 18.2 17 30.8 1.3 16.5-11.1 30.6-24.6 38.2-20.9 10.3-45.9 10.7-68 4.7-16.6-5.7-36.5-15.6-39.4-34.8 23.9 15.6 53.8 22 81.7 14.9 14.9-3.4 29.9-11.9 36.5-26.3 3.8-9.3-0.2-18.7-3.2-27.5z"/>
		</g>
		<g id="#ffffffff">
			<path id="path16" class="s1" d="m498.4 70.8c55.2-32.8 120.4-56 185.4-45.9 76.6 13.8 131.6 95.6 118 171.7-10.9 59.5-54.4 109.5-106 138.5-7.8-34.9-16.1-69.7-21.5-105.1-1.4 0.6-4.3 1.9-5.8 2.5-3.6 17.1-2.8 34.9-1.6 52.2 5.7 57.6 22.3 113.2 37.2 168.9-50.7 1.8-99.8 15.5-147.9 30.2-17.4-53.4 5.7-109.7-7.6-163.6-3.1-11.4-9.5-23.2-21.1-27.7-18.8-7.6-40 2.9-50 19.5-13.7 23.4-16.9 51.4-17.8 78-1.7 42.8 12.8 84 32.5 121.3-67.8 32.1-131 76.4-178.4 135.1-3.6 4.7-7.8-2.6-10.5-4.7-42.4-43-88.1-87.7-147.2-105.9 0.2 5 3.2 8.8 7.3 11.4 30.7 23.5 59.4 49.3 88.4 74.8-31.3 19.4-69.8 20.6-105.2 15.2-34.6-6-68.5-21.5-92.2-48-34.8-39.2-41.8-99.5-18.7-146.3 17.6-35.7 49.4-62.1 83.3-81.8 55.9-32.3 118.8-49.9 181.5-63.1-4.5 19.4-13.3 38.2-12.9 58.4 13.3 0.4 15.5-15.2 19.1-24.6 33.4-104.4 96.5-203.3 191.7-261z"/>
			<path id="path18" fill-rule="evenodd" class="s1" d="m870.8 627c33.2-15.1 71.9-19.8 107.2-9.2 40.3 11.6 73.4 39.8 100.4 71.1 52.1 58.1 76.7 137 78.2 214.2l0.1 6.1c31.4-15.6 69.3-21.7 102.7-8.7 26.6 9.8 47.9 31.4 58.7 57.5 17.4 43.1 20.9 91.3 11.7 136.8-11.9 60-42 114.9-78.5 163.5-40.5 53.9-89.6 100.8-142.8 142-0.1-9.2-0.2-18.4-0.5-27.6-9.6 2.7-9 15.4-13.4 22.8-19.7 55.9-65.3 101.1-121 121.1-63.2 24.4-134.8 16.5-195.9-10.4-18.6-6.3-35.9-16.8-55.1-21.3l-1.4 5.7c6.8 10 17 17 26.7 24.2-101.3-8.5-202.8-19.3-301.7-43.4-70.2-17.2-139.7-47.8-190.4-100.6-40.6-41.7-62.9-100.9-57.4-159 3.7-31.5 20.1-60.9 43.9-81.7 29.8-26 69.7-39.4 109.1-38.5 29.5-0.4 58.4 5 87.4 9.1q-1.9-4.1-4-8.1c-40.7-77.6-62.3-169.5-40.9-256 12.2-51.7 44.2-99.5 90.8-126 47.7-27.8 108.2-34.9 159.8-14 60.6 23.9 109.8 72.1 140.9 128.7 0.3-30.8-2.3-62.3 6.4-92.3 11.6-43.3 37.4-85.9 79-106zm56.6 59.7c-34.3 10-59.1 41.1-67 75.2-10.4 43.4-2.2 88.7 9.1 131.1 13 45.5 32.3 90.1 62.3 127.2 17.5-6.5 33.1-16.9 49.8-25 48-25.7 98.3-46.8 145.8-73.3 4.4-8.8-4.1-9.8-10.6-9.8-1-41.6-9.8-83.4-27.9-121-15.8-33.6-37.1-66.1-68.4-87.1-26.9-17.8-61.5-27.2-93.1-17.3zm-352 75.5c-29.8-0.2-57 15.9-78.3 35.4-31.5 29.9-44.9 74.3-44.9 116.8 0 56.6 18.2 111.7 44.5 161.3q-7 3.3-14 6.7c1.3 2.6 3.9 7.8 5.2 10.4 56-8.9 112.2-16.3 168.9-18.5 29.4-0.6 58.9-0.8 88.4-0.6 3.3-26.7 3.8-53.6 2.3-80.3-4.3-58.5-16.2-119.7-53-167.1-28.2-36.3-71.4-66.2-119.1-64.1zm559 299.8c-20.1 5.9-40.9 3-61.4 2.5 3.4 12.9 17.5 16.8 29 18.7-4.7 13.2-13.3 24.4-21.6 35.5-39.4 49.8-97 82.3-156.7 101.5-78.3 24.8-162.1 25-242.9 15.3-28.8-4.1-58-7.9-85.1-18.7 4.8-9.2 9.5-19 7.8-29.6-9.4-0.3-13.1 9.7-19.1 15.1-17.8 19.9-44 28.9-69.7 32.5-0.8 1.3-2.4 3.8-3.2 5.1 21 4.1 42.8 2.5 63.2-3.8 10.7-4.3 21.7 0.7 32 3.3 45.2 13.9 89.2 31.4 132.1 51.2 33.5 15.1 62.9 38 96.7 52.7 35.9 16.5 79.2 19 115.6 2.8 35.6-18.2 56.2-54.9 71.6-90.2 22.6-56.8 52.6-110.9 90-159.5 12.8-19.9 39.1-23.4 53.3-42.1-11.2-1.5-20.9 6-31.6 7.7zm-213 17.3c3 8.8 7 18.2 3.2 27.5-6.6 14.4-21.6 22.9-36.5 26.3-27.9 7.1-57.8 0.7-81.7-14.9 2.9 19.2 22.8 29.1 39.4 34.8 22.1 6 47.1 5.6 68-4.7 13.5-7.6 25.9-21.7 24.6-38.2 0.3-12.6-7.2-23.6-17-30.8zm1.8 315.5c-38.8 8.4-77.4-5.4-112.7-20.2 27.6 35.1 77.7 45.2 119.8 36.4 37.1-7.3 71.7-33.8 81.1-71.5-23 26.6-52.6 49.5-88.2 55.3z"/>
			<path id="path20" class="s1" d="m884.2 745.4c11-26.3 37.9-44.2 66.2-44.9 33-3 63.4 16 84.5 39.7 43.7 48.9 63.8 114.7 66.6 179.2-12.5 6.2-25.1 11.8-37.9 17.3 0.2-34.9-11-69.3-29.3-98.7-16.9 11.7-34.1 23.2-51.8 33.9 8.2-21 18.1-41.2 26.5-62.1-24.9-22.9-64.5-25.7-92.8-7.5-22.1 12.8-32 38.1-35.8 62.2-10.3-38.6-12.4-81.8 3.8-119.1z"/>
			<path id="path22" class="s1" d="m554.5 785.2c24.7-6.4 51.8-3.7 74.3 8.6 40.5 21.5 68.5 61.7 82.5 104.7 16.6 51 20.7 105.4 17.7 158.8-19.3 0.4-38.7 0.6-58 0.7 6.4-41.9 3.7-86.8-18-124.2-20.3 10.8-39 24-58.4 36.1 8-24.7 19.3-48.3 29.4-72.2-22.3-17.1-51.9-27.9-79.8-20-38 10-64.6 47.5-67.8 85.8-11.1-38.7-7.8-81.8 10.2-118 13.9-27.5 37.4-52 67.9-60.3z"/>
		</g>
		<g id="#e5173fff">
			<path id="path25" class="s2" d="m866.1 282.7c7.6-1.7 17.9-3.4 23.4 3.5 7.8 9.8 3 23.1-1.9 33-18.6 36.1-48.6 65.1-64.4 102.7-10.8 24.4-11.7 51.7-10.5 78 0.5 8 1.4 17.2 8.9 22 1.6-15 1.6-30.2 2.9-45.2 79.5 7.2 155.6 39.2 220 85.8 100.1 72.9 163.3 193.4 165.8 317.2-19.2 4.1-38.3 10.6-53.7 23.4-1.5-77.2-26.1-156.1-78.2-214.2-27-31.3-60.1-59.5-100.4-71.1-35.3-10.6-74-5.9-107.2 9.2-41.6 20.1-67.4 62.7-79 106-8.7 30-6.1 61.5-6.4 92.3-31.1-56.6-80.3-104.8-140.9-128.7-51.6-20.9-112.1-13.8-159.8 14-46.6 26.5-78.6 74.3-90.8 126-21.4 86.5 0.2 178.4 40.9 256-54.5-24.5-119.7-25.7-173.4 1.6-34.2-88-40.8-187.6-12.1-278 28.4-97.2 90.4-183.9 173.6-241.6 24.8-17.4 51.1-32.8 78.5-45.6 16.5 14 25.7 38.4 47.3 47.3-1.9-14.7-14.8-24.3-21.4-36.9-31.2-44.7-51-98.5-49.9-153.4 0.1-21.7 3.2-44.4 15.4-62.8 6.5-9.7 21.3-15 31.4-7.9 12.6 16.7 10.1 39.3 10.6 59 0.5 30-6.7 60-1.2 89.8 4.6 31.1 20.1 59.7 40.7 83 3.3 4.2 7.7 7.1 12.5 9.2-2.4-19.6-18.1-34-23-53 65.6-21.9 134.5-35.3 203.9-32.1 3 14.7-2.6 35.5 11.5 45.1 1.6-34.3-2.2-69 4.1-103.1 5-35.6 21.8-68.3 42.1-97.6 10.6-14 23.8-27.2 40.7-32.9z"/>
			<path id="path27" class="s2" d="m914.3 1271.6c12.3-7.7 25.8-14.5 40.6-14.9 14.8-1.2 28.8 4.7 42.2 10.2-14.6 36.9-48.8 67.7-89.3 71.3-41.6 3.1-82.1-15-114.6-39.7 39.7-25.9 96.1-31.9 136.3-3.7-4.4-8.2-10-15.6-15.2-23.2z"/>
		</g>
		<g id="#221e1fff">
			<path id="path52" class="s3" d="m923.2 1394.8c35.6-5.8 65.2-28.7 88.2-55.3-9.4 37.7-44 64.2-81.1 71.5-42.1 8.8-92.2-1.3-119.8-36.4 35.3 14.8 73.9 28.6 112.7 20.2z"/>
		</g>
	</g>
</svg>